<?xml version="1.0" encoding="utf-8"?>
<!-- Generator: Adobe Illustrator 16.0.0, SVG Export Plug-In . SVG Version: 6.00 Build 0)  -->
<!DOCTYPE svg PUBLIC "-//W3C//DTD SVG 1.1//EN" "http://www.w3.org/Graphics/SVG/1.1/DTD/svg11.dtd">
<svg version="1.1" id="Layer_1" xmlns="http://www.w3.org/2000/svg" xmlns:xlink="http://www.w3.org/1999/xlink" x="0px" y="0px"
	 width="1000px" height="1000px" viewBox="0 0 1000 1000" enable-background="new 0 0 1000 1000" xml:space="preserve">
<line stroke="#048442" stroke-width="3" stroke-miterlimit="10" x1="80.341" y1="661.117" x2="235.379" y2="771.627"/>
<line stroke="#E85025" stroke-width="3" stroke-miterlimit="10" x1="841.509" y1="529.564" x2="876.567" y2="267.235"/>
<linearGradient id="SVGID_1_" gradientUnits="userSpaceOnUse" x1="848.5537" y1="219.708" x2="909.8052" y2="305.5078">
	<stop  offset="0" style="stop-color:#F15B38"/>
	<stop  offset="1" style="stop-color:#BB3426"/>
</linearGradient>
<path fill="url(#SVGID_1_)" d="M930.34,260.44c0,29.092-23.598,52.703-52.719,52.703c-29.1,0-52.707-23.611-52.707-52.703
	c0-29.108,23.607-52.712,52.707-52.712C906.742,207.729,930.34,231.332,930.34,260.44z"/>
<line fill="#E85025" stroke="#296497" stroke-width="3" stroke-miterlimit="10" x1="313.894" y1="277.109" x2="563.267" y2="361.183"/>
<line fill="#E85025" stroke="#296497" stroke-width="3" stroke-miterlimit="10" x1="386.715" y1="176.479" x2="532.107" y2="52.712"/>
<line fill="#E85025" stroke="#296497" stroke-width="3" stroke-miterlimit="10" x1="292.751" y1="557.576" x2="280.563" y2="367.037"/>
<line stroke="#E85025" stroke-width="3" stroke-miterlimit="10" x1="730.035" y1="477.059" x2="572.182" y2="369.631"/>
<line stroke="#E85025" stroke-width="3" stroke-miterlimit="10" x1="820.514" y1="558.863" x2="595.473" y2="806.26"/>
<line stroke="#E85025" stroke-width="3" stroke-miterlimit="10" x1="828.383" y1="532.081" x2="524.791" y2="639.056"/>
<line stroke="#048442" stroke-width="3" stroke-miterlimit="10" x1="581.282" y1="841.125" x2="391.498" y2="820.35"/>
<line stroke="#048442" stroke-width="3" stroke-miterlimit="10" x1="489.68" y1="656.117" x2="332.85" y2="765.006"/>
<line stroke="#048442" stroke-width="3" stroke-miterlimit="10" x1="291.719" y1="542.469" x2="304.656" y2="800.991"/>
<linearGradient id="SVGID_2_" gradientUnits="userSpaceOnUse" x1="499.7036" y1="13.8589" x2="569.3625" y2="92.9853">
	<stop  offset="0" style="stop-color:#439CD6"/>
	<stop  offset="1" style="stop-color:#296497"/>
</linearGradient>
<path fill="url(#SVGID_2_)" d="M586.612,52.712c0,29.11-23.593,52.713-52.7,52.713c-29.11,0-52.713-23.603-52.713-52.713
	C481.199,23.604,504.802,0,533.912,0C563.02,0,586.612,23.604,586.612,52.712z"/>
<linearGradient id="SVGID_3_" gradientUnits="userSpaceOnUse" x1="530.0215" y1="326.0996" x2="601.8968" y2="403.2117">
	<stop  offset="0" style="stop-color:#F15B38"/>
	<stop  offset="1" style="stop-color:#BB3426"/>
</linearGradient>
<path fill="url(#SVGID_3_)" d="M615.439,361.199c0,29.1-23.593,52.704-52.706,52.704c-29.107,0-52.712-23.604-52.712-52.704
	c0-29.109,23.604-52.712,52.712-52.712C591.847,308.487,615.439,332.089,615.439,361.199z"/>
<linearGradient id="SVGID_4_" gradientUnits="userSpaceOnUse" x1="156.5049" y1="135.9644" x2="373.9177" y2="370.313">
	<stop  offset="0" style="stop-color:#439CD6"/>
	<stop  offset="1" style="stop-color:#296497"/>
</linearGradient>
<path fill="url(#SVGID_4_)" d="M425.899,254.067c0,88.271-71.545,159.835-159.827,159.835c-88.269,0-159.834-71.563-159.834-159.835
	c0-88.271,71.565-159.836,159.834-159.836C354.354,94.231,425.899,165.797,425.899,254.067z"/>
<linearGradient id="SVGID_5_" gradientUnits="userSpaceOnUse" x1="210.5308" y1="706.6494" x2="387.7959" y2="905.8649">
	<stop  offset="0" style="stop-color:#0FB259"/>
	<stop  offset="1" style="stop-color:#048442"/>
</linearGradient>
<path fill="url(#SVGID_5_)" d="M431.928,805.621c0,73.641-59.695,133.332-133.331,133.332s-133.33-59.691-133.33-133.332
	c0-73.637,59.694-133.33,133.33-133.33S431.928,731.984,431.928,805.621z"/>
<linearGradient id="SVGID_6_" gradientUnits="userSpaceOnUse" x1="733.583" y1="422.1016" x2="942.769" y2="663.8311">
	<stop  offset="0" style="stop-color:#F15B38"/>
	<stop  offset="1" style="stop-color:#BB3426"/>
</linearGradient>
<path fill="url(#SVGID_6_)" d="M996.609,541.348c0,88.271-71.549,159.836-159.836,159.836c-88.271,0-159.834-71.564-159.834-159.836
	c0-88.268,71.563-159.833,159.834-159.833C925.061,381.515,996.609,453.08,996.609,541.348z"/>
<g>
	<path fill="none" d="M183.585,327.955V162.988h164.968v164.967H183.585z"/>
	<g>
		<g id="surface1_1_">
			<path fill="#FFFFFF" d="M243.231,188.765c-21.568,0-40.16,15.772-43.883,36.883c-1.224,0.579-2.306,1.456-3.08,2.614
				c-1.457,2.118-1.727,4.833-0.776,7.234c0.896,2.201,2.083,4.17,3.557,5.924v15.745c-3.089,1.792-5.152,5.114-5.152,8.923
				c0,3.826,2.063,7.139,5.152,8.922v14.288c0,7.103,5.767,12.881,12.889,12.881h108.261c7.122,0,12.889-5.778,12.889-12.881V275.01
				c3.089-1.783,5.152-5.096,5.152-8.922c0-3.809-2.063-7.131-5.152-8.923V241.42c1.475-1.753,2.659-3.723,3.546-5.924
				c0.96-2.4,0.69-5.116-0.765-7.234c-0.775-1.158-1.857-2.035-3.071-2.614c-3.733-21.111-22.325-36.883-43.892-36.883H243.231z
				 M243.231,193.926h45.676c18.497,0,34.56,13.094,38.506,30.929H204.715C208.672,207.02,224.733,193.926,243.231,193.926z
				 M255.757,199.078c-1.419,0-2.577,1.158-2.577,2.565c0,1.439,1.158,2.595,2.577,2.595h5.161c1.417,0,2.575-1.156,2.575-2.595
				c0-1.407-1.158-2.565-2.575-2.565H255.757z M278.957,204.238c-1.417,0-2.576,1.149-2.576,2.567c0,1.429,1.159,2.585,2.576,2.585
				h5.162c1.41,0,2.575-1.157,2.575-2.585c0-1.417-1.166-2.567-2.575-2.567H278.957z M224.836,206.805
				c-1.428,0-2.584,1.148-2.584,2.585c0,1.409,1.156,2.567,2.584,2.567h5.142c1.419,0,2.576-1.158,2.576-2.567
				c0-1.438-1.157-2.585-2.576-2.585H224.836z M304.736,211.957c-1.42,0-2.576,1.157-2.576,2.584c0,1.42,1.156,2.577,2.576,2.577
				h5.151c1.419,0,2.576-1.157,2.576-2.577c0-1.427-1.157-2.584-2.576-2.584H304.736z M250.604,214.542
				c-1.429,0-2.584,1.158-2.584,2.577c0,1.427,1.155,2.585,2.584,2.585h5.152c1.427,0,2.574-1.158,2.574-2.585
				c0-1.418-1.147-2.577-2.574-2.577H250.604z M202.689,230.017H329.45c0.876,0,1.66,0.401,2.146,1.11
				c0.486,0.775,0.578,1.651,0.251,2.437c-0.904,2.267-2.239,4.217-3.919,5.861c-2.11,2.081-4.769,3.575-7.701,4.217
				c-7.326,1.625-14.755-1.585-18.394-8.026c-0.122-0.167-0.214-0.316-0.365-0.448c-0.475-0.512-1.166-0.83-1.885-0.83
				c-0.728,0-1.428,0.317-1.886,0.83c-0.158,0.131-0.251,0.281-0.362,0.448c-2.96,5.227-8.531,8.474-14.514,8.474
				s-11.544-3.247-14.503-8.474c-0.111-0.167-0.215-0.316-0.365-0.448c-0.466-0.512-1.156-0.83-1.883-0.83
				c-0.729,0-1.419,0.317-1.886,0.83c-0.149,0.131-0.252,0.281-0.365,0.448c-2.957,5.227-8.521,8.474-14.502,8.474
				s-11.555-3.247-14.513-8.474c-0.112-0.167-0.225-0.316-0.363-0.448c-0.971-0.979-2.782-0.979-3.772,0
				c-0.121,0.131-0.243,0.281-0.363,0.448c-3.641,6.44-11.051,9.678-18.396,8.026c-2.931-0.643-5.59-2.137-7.7-4.217
				c-1.679-1.644-3.014-3.594-3.92-5.861c-0.326-0.785-0.232-1.662,0.254-2.437C201.028,230.417,201.812,230.017,202.689,230.017z
				 M232.554,241.392c4.135,4.9,10.266,7.859,16.762,7.859c6.523,0,12.628-2.958,16.753-7.859c4.125,4.9,10.228,7.859,16.751,7.859
				c6.495,0,12.628-2.958,16.762-7.859c5.198,6.253,13.496,9.138,21.745,7.28c2.372-0.541,4.621-1.475,6.599-2.744v9.846H204.21
				v-9.846c1.979,1.269,4.228,2.203,6.599,2.744C219.06,250.53,227.356,247.646,232.554,241.392z M204.21,260.926h123.718
				c2.847,0,5.161,2.333,5.161,5.162c0,2.846-2.313,5.151-5.161,5.151H204.21c-2.846,0-5.161-2.305-5.161-5.151
				C199.049,263.26,201.364,260.926,204.21,260.926z M204.21,276.4h123.718v12.898c0,4.238-3.472,7.718-7.729,7.718H211.938
				c-4.256,0-7.729-3.48-7.729-7.718V276.4z M214.524,281.552c-1.429,0-2.585,1.158-2.585,2.587v5.16
				c0,1.409,1.157,2.567,2.585,2.567c1.409,0,2.575-1.158,2.575-2.567v-5.16C217.099,282.71,215.933,281.552,214.524,281.552z
				 M227.403,281.552c-1.419,0-2.567,1.158-2.567,2.587v5.16c0,1.409,1.148,2.567,2.567,2.567c1.418,0,2.575-1.158,2.575-2.567
				v-5.16C229.978,282.71,228.821,281.552,227.403,281.552z M240.292,281.552c-1.419,0-2.577,1.158-2.577,2.587v5.16
				c0,1.409,1.158,2.567,2.577,2.567c1.417,0,2.575-1.158,2.575-2.567v-5.16C242.867,282.71,241.709,281.552,240.292,281.552z
				 M253.18,281.552c-1.428,0-2.575,1.158-2.575,2.587v5.16c0,1.409,1.147,2.567,2.575,2.567c1.42,0,2.577-1.158,2.577-2.567v-5.16
				C255.757,282.71,254.6,281.552,253.18,281.552z M266.07,281.552c-1.419,0-2.577,1.158-2.577,2.587v5.16
				c0,1.409,1.158,2.567,2.577,2.567c1.417,0,2.574-1.158,2.574-2.567v-5.16C268.644,282.71,267.487,281.552,266.07,281.552z
				 M278.957,281.552c-1.417,0-2.576,1.158-2.576,2.587v5.16c0,1.409,1.159,2.567,2.576,2.567c1.429,0,2.578-1.158,2.578-2.567
				v-5.16C281.534,282.71,280.385,281.552,278.957,281.552z M291.846,281.552c-1.419,0-2.577,1.158-2.577,2.587v5.16
				c0,1.409,1.158,2.567,2.577,2.567c1.418,0,2.576-1.158,2.576-2.567v-5.16C294.422,282.71,293.264,281.552,291.846,281.552z
				 M304.736,281.552c-1.42,0-2.576,1.158-2.576,2.587v5.16c0,1.409,1.156,2.567,2.576,2.567c1.417,0,2.566-1.158,2.566-2.567v-5.16
				C307.302,282.71,306.153,281.552,304.736,281.552z M317.614,281.552c-1.41,0-2.575,1.158-2.575,2.587v5.16
				c0,1.409,1.166,2.567,2.575,2.567c1.429,0,2.585-1.158,2.585-2.567v-5.16C320.199,282.71,319.043,281.552,317.614,281.552z"/>
		</g>
	</g>
</g>
<g>
	<path fill="none" d="M756.864,621.268V461.433h159.821v159.834H756.864z"/>
	<g>
		<g id="surface1_2_">
			<path fill="#FFFFFF" d="M826.794,461.433c-4.254,0-7.488,3.266-7.488,7.493c0,1.251,0.245,2.501,1.013,3.473l-19.509,23.985
				h-36.455c-4.241,0-7.49,3.265-7.49,7.493v15.001c0,3.506,2.241,6.252,5.245,7.26v0.242l11.479,63.686
				c0.747,3.744,3.751,6.217,7.506,6.217h111.625c3.756,0,6.764-2.473,7.505-6.217l10.998-63.686v-0.242
				c2.967-1.008,5.241-3.754,5.241-7.26v-15.001c0.223-4.228-3.025-7.493-7.259-7.493h-36.453l-19.503-23.985
				c0.763-0.972,1.021-2.222,1.021-3.473c0-4.227-3.242-7.493-7.505-7.493c-4.251,0-7.48,3.266-7.48,7.493
				c0,4.247,3.229,7.504,7.48,7.504c1.014,0,2.018-0.242,2.77-0.521l16.718,20.476h-58.946l16.729-20.476
				c0.743,0.279,1.756,0.521,2.761,0.521c4.255,0,7.502-3.257,7.502-7.504C834.296,464.699,831.049,461.433,826.794,461.433z
				 M826.794,465.428c1.999,0,3.508,1.493,3.508,3.499c0,1.98-1.509,3.473-3.508,3.473c-2.018,0-3.507-1.493-3.507-3.473
				C823.287,466.921,824.776,465.428,826.794,465.428z M846.764,465.428c2.018,0,3.515,1.493,3.515,3.499
				c0,1.98-1.497,3.473-3.515,3.473c-1.994,0-3.506-1.493-3.506-3.473C843.258,466.921,844.77,465.428,846.764,465.428z
				 M764.354,501.388h32.46l-6.717,8.499c-0.766,1-0.766,2.746,0.244,3.502c0.501,0.495,0.99,0.495,1.491,0.495
				c0.748,0,1.511-0.253,2.001-1.008l9.477-11.488h67.197l9.487,11.488c0.48,0.513,1.248,1.008,1.977,1.008
				c0.525,0,1.003-0.253,1.493-0.495c1.008-0.756,1.271-2.502,0.279-3.502l-6.997-8.499h32.457c1.509,0,2.483,0.997,2.483,2.49
				v15.001c0,1.49-0.975,2.5-2.483,2.5c-1.247,0-2.24,0.764-2.502,1.977l-0.483,3.025l-11.256,62.914
				c-0.223,1.248-1.23,2.021-2.501,2.021H781.094c-1.254,0-2.258-0.773-2.503-2.021l-11.239-62.914h111.874
				c1.515,0,2.501-1.02,2.501-2.502c0-1.494-0.986-2.5-2.501-2.5H764.354c-1.499,0-2.487-1.01-2.487-2.5v-15.001
				C761.867,502.385,762.855,501.388,764.354,501.388z M889.215,521.379c-1.493,0-2.501,1.006-2.501,2.5
				c0,1.482,1.008,2.502,2.501,2.502h10c1.496,0,2.501-1.02,2.501-2.502c0-1.494-1.005-2.5-2.501-2.5H889.215z M779.336,531.383
				c-1.488,0-2.502,0.963-2.502,2.482v5.004c0,1.49,1.014,2.5,2.502,2.5c1.523,0,2.502-1.01,2.502-2.5v-5.004
				C781.838,532.346,780.859,531.383,779.336,531.383z M791.833,531.383c-1.509,0-2.501,0.963-2.501,2.482v5.004
				c0,1.49,0.992,2.5,2.501,2.5c1.511,0,2.501-1.01,2.501-2.5v-5.004C794.334,532.346,793.344,531.383,791.833,531.383z
				 M804.324,531.383c-1.497,0-2.502,0.963-2.502,2.482v5.004c0,1.49,1.005,2.5,2.502,2.5c1.487,0,2.501-1.01,2.501-2.5v-5.004
				C806.825,532.346,805.812,531.383,804.324,531.383z M816.809,531.383c-1.511,0-2.501,0.963-2.501,2.482v5.004
				c0,1.49,0.99,2.5,2.501,2.5c1.47,0,2.497-1.01,2.497-2.5v-5.004C819.306,532.346,818.278,531.383,816.809,531.383z
				 M829.295,531.383c-1.494,0-2.501,0.963-2.501,2.482v5.004c0,1.49,1.007,2.5,2.501,2.5c1.496,0,2.502-1.01,2.502-2.5v-5.004
				C831.797,532.346,830.791,531.383,829.295,531.383z M844.263,531.383c-1.492,0-2.479,0.963-2.479,2.482v5.004
				c0,1.49,0.986,2.5,2.479,2.5c1.497,0,2.501-1.01,2.501-2.5v-5.004C846.764,532.346,845.76,531.383,844.263,531.383z
				 M856.774,531.383c-1.493,0-2.506,0.963-2.506,2.482v5.004c0,1.49,1.013,2.5,2.506,2.5c1.488,0,2.501-1.01,2.501-2.5v-5.004
				C859.275,532.346,858.263,531.383,856.774,531.383z M869.242,531.383c-1.494,0-2.501,0.963-2.501,2.482v5.004
				c0,1.49,1.007,2.5,2.501,2.5c1.489,0,2.501-1.01,2.501-2.5v-5.004C871.743,532.346,870.731,531.383,869.242,531.383z
				 M881.727,531.383c-1.474,0-2.501,0.963-2.501,2.482v5.004c0,1.49,1.027,2.5,2.501,2.5c1.516,0,2.502-1.01,2.502-2.5v-5.004
				C884.229,532.346,883.242,531.383,881.727,531.383z M894.218,531.383c-1.499,0-2.501,0.963-2.501,2.482v5.004
				c0,1.49,1.002,2.5,2.501,2.5c1.491,0,2.501-1.01,2.501-2.5v-5.004C896.719,532.346,895.709,531.383,894.218,531.383z
				 M786.851,581.313c-1.534,0-2.502,0.98-2.502,2.502c0,1.494,0.968,2.5,2.502,2.5h77.385c1.536,0,2.506-1.006,2.506-2.5
				c0-1.521-0.97-2.502-2.506-2.502H786.851z M874.245,581.313c-1.494,0-2.502,0.98-2.502,2.502c0,1.494,1.008,2.5,2.502,2.5h9.983
				c1.515,0,2.485-1.006,2.485-2.5c0-1.521-0.971-2.502-2.485-2.502H874.245z"/>
		</g>
	</g>
</g>
<g>
	<path fill="#FFFFFF" d="M257.151,881.447c0-1.677-0.029-3.117-0.118-4.44h2.264l0.088,2.793h0.117
		c0.647-1.911,2.206-3.116,3.94-3.116c0.294,0,0.5,0.029,0.735,0.088v2.44c-0.265-0.059-0.529-0.088-0.882-0.088
		c-1.823,0-3.117,1.382-3.47,3.322c-0.059,0.354-0.118,0.765-0.118,1.206v7.586h-2.558V881.447z"/>
	<path fill="#FFFFFF" d="M267.91,884.593c0.059,3.499,2.293,4.94,4.881,4.94c1.853,0,2.97-0.324,3.94-0.735l0.441,1.853
		c-0.912,0.411-2.47,0.882-4.734,0.882c-4.381,0-6.998-2.882-6.998-7.175s2.529-7.674,6.675-7.674c4.646,0,5.881,4.087,5.881,6.704
		c0,0.529-0.059,0.94-0.088,1.205H267.91z M275.496,882.74c0.029-1.646-0.676-4.204-3.587-4.204c-2.617,0-3.764,2.411-3.969,4.204
		H275.496z"/>
	<path fill="#FFFFFF" d="M291.341,890.709c-0.676,0.353-2.176,0.823-4.087,0.823c-4.293,0-7.086-2.911-7.086-7.263
		c0-4.381,3-7.557,7.645-7.557c1.529,0,2.882,0.382,3.587,0.735l-0.588,1.999c-0.618-0.353-1.588-0.676-3-0.676
		c-3.264,0-5.028,2.411-5.028,5.381c0,3.293,2.117,5.321,4.94,5.321c1.47,0,2.44-0.382,3.175-0.705L291.341,890.709z"/>
	<path fill="#FFFFFF" d="M297.248,873.008c0.03,0.882-0.617,1.588-1.646,1.588c-0.912,0-1.558-0.706-1.558-1.588
		c0-0.911,0.676-1.617,1.617-1.617C296.63,871.391,297.248,872.097,297.248,873.008z M294.366,891.238v-14.231h2.587v14.231H294.366
		z"/>
	<path fill="#FFFFFF" d="M301.245,881.652c0-1.822-0.059-3.293-0.118-4.646h2.323l0.118,2.44h0.059
		c1.059-1.734,2.734-2.764,5.057-2.764c3.44,0,6.028,2.911,6.028,7.233c0,5.116-3.117,7.645-6.469,7.645
		c-1.882,0-3.528-0.823-4.381-2.234h-0.059v7.733h-2.558V881.652z M303.803,885.445c0,0.383,0.059,0.735,0.118,1.059
		c0.47,1.794,2.029,3.029,3.881,3.029c2.734,0,4.322-2.235,4.322-5.499c0-2.852-1.5-5.292-4.234-5.292
		c-1.764,0-3.411,1.264-3.911,3.204c-0.088,0.324-0.176,0.706-0.176,1.059V885.445z"/>
	<path fill="#FFFFFF" d="M319.411,884.593c0.059,3.499,2.293,4.94,4.881,4.94c1.853,0,2.97-0.324,3.94-0.735l0.441,1.853
		c-0.912,0.411-2.47,0.882-4.734,0.882c-4.381,0-6.998-2.882-6.998-7.175s2.529-7.674,6.675-7.674c4.646,0,5.881,4.087,5.881,6.704
		c0,0.529-0.059,0.94-0.088,1.205H319.411z M326.997,882.74c0.029-1.646-0.676-4.204-3.587-4.204c-2.617,0-3.764,2.411-3.969,4.204
		H326.997z"/>
	<path fill="#FFFFFF" d="M332.345,888.592c0.765,0.5,2.117,1.029,3.411,1.029c1.882,0,2.764-0.941,2.764-2.117
		c0-1.234-0.735-1.911-2.646-2.617c-2.558-0.911-3.764-2.322-3.764-4.028c0-2.293,1.852-4.175,4.91-4.175
		c1.441,0,2.705,0.411,3.499,0.882l-0.647,1.882c-0.559-0.353-1.587-0.823-2.911-0.823c-1.529,0-2.382,0.882-2.382,1.94
		c0,1.177,0.853,1.706,2.705,2.411c2.47,0.941,3.734,2.176,3.734,4.293c0,2.5-1.941,4.264-5.322,4.264
		c-1.558,0-2.999-0.382-3.999-0.971L332.345,888.592z"/>
</g>
<g>
	<path fill="#FFFFFF" d="M783.98,636.99c0-1.822-0.059-3.293-0.117-4.646h2.322l0.118,2.44h0.059
		c1.059-1.734,2.734-2.764,5.058-2.764c3.439,0,6.027,2.911,6.027,7.233c0,5.116-3.117,7.645-6.469,7.645
		c-1.882,0-3.528-0.823-4.381-2.234h-0.06v7.733h-2.558V636.99z M786.538,640.783c0,0.383,0.06,0.735,0.118,1.059
		c0.471,1.794,2.028,3.029,3.881,3.029c2.735,0,4.322-2.235,4.322-5.499c0-2.852-1.499-5.292-4.233-5.292
		c-1.765,0-3.411,1.264-3.911,3.204c-0.088,0.324-0.177,0.706-0.177,1.059V640.783z"/>
	<path fill="#FFFFFF" d="M800.706,636.785c0-1.677-0.029-3.117-0.117-4.44h2.264l0.088,2.793h0.118
		c0.646-1.911,2.205-3.116,3.939-3.116c0.294,0,0.5,0.029,0.735,0.088v2.44c-0.265-0.059-0.529-0.088-0.882-0.088
		c-1.823,0-3.117,1.382-3.47,3.322c-0.059,0.354-0.117,0.765-0.117,1.206v7.586h-2.559V636.785z"/>
	<path fill="#FFFFFF" d="M822.904,639.343c0,5.264-3.646,7.557-7.086,7.557c-3.853,0-6.822-2.822-6.822-7.321
		c0-4.764,3.117-7.557,7.057-7.557C820.141,632.021,822.904,634.991,822.904,639.343z M811.613,639.49
		c0,3.116,1.794,5.469,4.322,5.469c2.47,0,4.322-2.323,4.322-5.528c0-2.411-1.205-5.469-4.264-5.469
		C812.937,633.962,811.613,636.785,811.613,639.49z"/>
	<path fill="#FFFFFF" d="M838.454,625.699V642.9c0,1.265,0.029,2.705,0.117,3.676h-2.322l-0.118-2.47h-0.059
		c-0.794,1.588-2.529,2.793-4.852,2.793c-3.44,0-6.087-2.911-6.087-7.233c-0.029-4.733,2.911-7.645,6.381-7.645
		c2.176,0,3.646,1.029,4.293,2.176h0.059v-8.498H838.454z M835.866,638.138c0-0.324-0.029-0.765-0.117-1.088
		c-0.383-1.647-1.794-3-3.734-3c-2.676,0-4.264,2.353-4.264,5.499c0,2.882,1.411,5.263,4.205,5.263c1.734,0,3.322-1.146,3.793-3.087
		c0.088-0.353,0.117-0.706,0.117-1.117V638.138z"/>
	<path fill="#FFFFFF" d="M854.65,642.695c0,1.47,0.029,2.764,0.118,3.881h-2.294l-0.146-2.323h-0.06
		c-0.676,1.147-2.176,2.646-4.704,2.646c-2.234,0-4.91-1.234-4.91-6.233v-8.321h2.587v7.88c0,2.705,0.823,4.528,3.176,4.528
		c1.735,0,2.94-1.205,3.411-2.353c0.146-0.382,0.235-0.853,0.235-1.322v-8.733h2.587V642.695z"/>
	<path fill="#FFFFFF" d="M869.084,646.047c-0.677,0.353-2.176,0.823-4.087,0.823c-4.293,0-7.087-2.911-7.087-7.263
		c0-4.381,2.999-7.557,7.646-7.557c1.528,0,2.881,0.382,3.587,0.735l-0.588,1.999c-0.618-0.353-1.588-0.676-2.999-0.676
		c-3.265,0-5.028,2.411-5.028,5.381c0,3.293,2.117,5.321,4.939,5.321c1.471,0,2.44-0.382,3.176-0.705L869.084,646.047z"/>
	<path fill="#FFFFFF" d="M875.607,628.258v4.087h3.704v1.97h-3.704v7.675c0,1.764,0.499,2.764,1.94,2.764
		c0.676,0,1.176-0.088,1.499-0.176l0.118,1.94c-0.5,0.206-1.294,0.353-2.294,0.353c-1.205,0-2.176-0.382-2.793-1.088
		c-0.735-0.765-1-2.029-1-3.705v-7.763h-2.205v-1.97h2.205v-3.411L875.607,628.258z"/>
	<path fill="#FFFFFF" d="M881.868,643.93c0.765,0.5,2.117,1.029,3.41,1.029c1.882,0,2.765-0.941,2.765-2.117
		c0-1.234-0.735-1.911-2.646-2.617c-2.559-0.911-3.764-2.322-3.764-4.028c0-2.293,1.853-4.175,4.91-4.175
		c1.44,0,2.705,0.411,3.499,0.882l-0.646,1.882c-0.559-0.353-1.588-0.823-2.911-0.823c-1.529,0-2.382,0.882-2.382,1.94
		c0,1.177,0.853,1.706,2.705,2.411c2.47,0.941,3.734,2.176,3.734,4.293c0,2.5-1.94,4.264-5.322,4.264
		c-1.559,0-2.999-0.382-3.999-0.971L881.868,643.93z"/>
</g>
<g>
	<path fill="#FFFFFF" d="M195.564,344.199c0-1.47-0.029-2.676-0.118-3.852h2.264l0.118,2.293h0.088
		c0.794-1.353,2.117-2.617,4.47-2.617c1.94,0,3.411,1.176,4.028,2.852h0.059c0.441-0.794,1-1.412,1.588-1.853
		c0.853-0.647,1.793-1,3.146-1c1.882,0,4.675,1.235,4.675,6.175v8.38h-2.529v-8.057c0-2.734-1-4.381-3.087-4.381
		c-1.47,0-2.617,1.088-3.058,2.353c-0.118,0.353-0.206,0.823-0.206,1.294v8.792h-2.529v-8.527c0-2.264-1-3.911-2.97-3.911
		c-1.617,0-2.793,1.294-3.205,2.588c-0.147,0.382-0.206,0.823-0.206,1.264v8.586h-2.529V344.199z"/>
	<path fill="#FFFFFF" d="M221.521,347.934c0.059,3.499,2.293,4.939,4.881,4.939c1.853,0,2.97-0.323,3.94-0.735l0.441,1.853
		c-0.912,0.412-2.47,0.882-4.734,0.882c-4.381,0-6.998-2.881-6.998-7.174s2.529-7.674,6.675-7.674c4.646,0,5.881,4.087,5.881,6.704
		c0,0.529-0.059,0.941-0.088,1.206H221.521z M229.107,346.081c0.029-1.646-0.676-4.205-3.587-4.205
		c-2.617,0-3.764,2.411-3.969,4.205H229.107z"/>
	<path fill="#FFFFFF" d="M234.808,344.199c0-1.47-0.029-2.676-0.118-3.852h2.293l0.147,2.353h0.059
		c0.706-1.353,2.352-2.676,4.705-2.676c1.97,0,5.028,1.176,5.028,6.057v8.498h-2.587v-8.204c0-2.293-0.853-4.205-3.293-4.205
		c-1.705,0-3.028,1.206-3.469,2.646c-0.118,0.324-0.177,0.765-0.177,1.206v8.557h-2.587V344.199z"/>
	<path fill="#FFFFFF" d="M263.031,350.697c0,1.47,0.029,2.764,0.117,3.881h-2.293l-0.147-2.323h-0.059
		c-0.676,1.146-2.176,2.646-4.705,2.646c-2.235,0-4.911-1.235-4.911-6.233v-8.321h2.588v7.88c0,2.705,0.823,4.528,3.175,4.528
		c1.735,0,2.94-1.206,3.411-2.352c0.147-0.382,0.235-0.853,0.235-1.323v-8.733h2.588V350.697z"/>
	<path fill="#FFFFFF" d="M276.432,336.348c0.03,0.882-0.617,1.588-1.646,1.588c-0.912,0-1.558-0.706-1.558-1.588
		c0-0.911,0.676-1.617,1.617-1.617C275.815,334.731,276.432,335.437,276.432,336.348z M273.551,354.579v-14.231h2.587v14.231
		H273.551z"/>
	<path fill="#FFFFFF" d="M283.546,336.26v4.087h3.705v1.97h-3.705v7.674c0,1.764,0.5,2.764,1.941,2.764
		c0.676,0,1.176-0.088,1.5-0.176l0.118,1.941c-0.5,0.206-1.294,0.353-2.293,0.353c-1.206,0-2.176-0.382-2.793-1.088
		c-0.735-0.765-1-2.029-1-3.705v-7.763h-2.205v-1.97h2.205v-3.411L283.546,336.26z"/>
	<path fill="#FFFFFF" d="M291.424,347.934c0.059,3.499,2.293,4.939,4.881,4.939c1.853,0,2.97-0.323,3.94-0.735l0.441,1.853
		c-0.912,0.412-2.47,0.882-4.734,0.882c-4.381,0-6.998-2.881-6.998-7.174s2.529-7.674,6.675-7.674c4.646,0,5.881,4.087,5.881,6.704
		c0,0.529-0.059,0.941-0.088,1.206H291.424z M299.01,346.081c0.029-1.646-0.676-4.205-3.587-4.205c-2.617,0-3.764,2.411-3.969,4.205
		H299.01z"/>
	<path fill="#FFFFFF" d="M304.71,344.199c0-1.47-0.029-2.676-0.118-3.852h2.264l0.118,2.293h0.088
		c0.794-1.353,2.117-2.617,4.47-2.617c1.94,0,3.411,1.176,4.028,2.852h0.059c0.441-0.794,1-1.412,1.588-1.853
		c0.853-0.647,1.793-1,3.146-1c1.882,0,4.675,1.235,4.675,6.175v8.38h-2.529v-8.057c0-2.734-1-4.381-3.087-4.381
		c-1.47,0-2.617,1.088-3.058,2.353c-0.118,0.353-0.206,0.823-0.206,1.294v8.792h-2.529v-8.527c0-2.264-1-3.911-2.97-3.911
		c-1.617,0-2.793,1.294-3.205,2.588c-0.147,0.382-0.206,0.823-0.206,1.264v8.586h-2.529V344.199z"/>
	<path fill="#FFFFFF" d="M328.874,351.932c0.765,0.5,2.117,1.029,3.411,1.029c1.882,0,2.764-0.941,2.764-2.117
		c0-1.235-0.735-1.911-2.646-2.617c-2.558-0.912-3.764-2.323-3.764-4.028c0-2.293,1.852-4.175,4.91-4.175
		c1.441,0,2.705,0.412,3.499,0.882l-0.647,1.882c-0.559-0.353-1.587-0.823-2.911-0.823c-1.529,0-2.382,0.882-2.382,1.941
		c0,1.176,0.853,1.705,2.705,2.411c2.47,0.941,3.734,2.176,3.734,4.292c0,2.5-1.941,4.264-5.322,4.264
		c-1.558,0-2.999-0.382-3.999-0.97L328.874,351.932z"/>
</g>
<g>
	<path fill="none" d="M521.68,402.246v-82.102h82.104v82.102H521.68z"/>
	<g>
		<path fill="#FFFFFF" d="M562.733,323.988c-20.521,0-37.21,16.688-37.21,37.201c0,20.523,16.688,37.21,37.21,37.21
			c20.504,0,37.192-16.687,37.192-37.21C599.926,340.677,583.237,323.988,562.733,323.988z M562.733,326.555
			c19.097,0,34.634,15.54,34.634,34.635c0,19.105-15.537,34.644-34.634,34.644c-19.104,0-34.644-15.539-34.644-34.644
			C528.09,342.095,543.629,326.555,562.733,326.555z M562.733,330.41c-16.975,0-30.788,13.812-30.788,30.779
			c0,6.971,2.267,13.543,6.562,19.012c0.251,0.326,0.635,0.494,1.009,0.494c0.28,0,0.557-0.094,0.792-0.281
			c0.56-0.438,0.651-1.239,0.213-1.8c-3.929-5.003-6.009-11.032-6.009-17.425c0-15.557,12.656-28.213,28.222-28.213
			c15.558,0,28.217,12.656,28.217,28.213c0,6.271-2.008,12.198-5.808,17.163c-0.437,0.561-0.316,1.364,0.23,1.802
			c0.572,0.42,1.377,0.318,1.806-0.241c4.143-5.415,6.335-11.882,6.335-18.723C593.514,344.222,579.7,330.41,562.733,330.41z
			 M562.733,341.954c-0.719,0-1.286,0.57-1.286,1.278v3.846h-1.282c-3.532,0-6.416,2.885-6.416,6.421v2.567
			c0,3.528,2.884,6.412,6.416,6.412h5.126c2.129,0,3.856,1.727,3.856,3.845v2.567c0,2.119-1.728,3.845-3.856,3.845h-1.277v-7.69
			c0-0.709-0.58-1.288-1.28-1.288c-0.719,0-1.286,0.578-1.286,1.288v7.69h-1.282c-2.126,0-3.85-1.727-3.85-3.845
			c0-0.701-0.571-1.278-1.282-1.278c-0.706,0-1.284,0.577-1.284,1.278c0,3.537,2.884,6.421,6.416,6.421h1.282v3.846
			c0,0.709,0.567,1.277,1.286,1.277c0.7,0,1.28-0.568,1.28-1.277v-3.846h1.277c3.536,0,6.424-2.884,6.424-6.421v-2.567
			c0-3.527-2.888-6.411-6.424-6.411h-1.277v-7.699c0-0.701-0.58-1.279-1.28-1.279c-0.719,0-1.286,0.578-1.286,1.279v7.699h-1.282
			c-2.126,0-3.85-1.727-3.85-3.846v-2.567c0-2.118,1.724-3.844,3.85-3.844h5.126c2.129,0,3.856,1.726,3.856,3.844
			c0,0.701,0.567,1.289,1.276,1.289c0.711,0,1.291-0.588,1.291-1.289c0-3.536-2.888-6.421-6.424-6.421h-1.277v-3.846
			C564.014,342.524,563.434,341.954,562.733,341.954z M581.969,380.602c-0.337-0.008-0.661,0.104-0.925,0.346
			c-0.511,0.486-0.541,1.289-0.065,1.811l1.749,1.884c0.251,0.271,0.596,0.412,0.938,0.412c0.309,0,0.625-0.123,0.87-0.346
			c0.521-0.486,0.55-1.297,0.063-1.811l-1.735-1.884C582.62,380.752,582.296,380.621,581.969,380.602z M543.723,380.835
			c-0.326,0.02-0.651,0.16-0.886,0.42l-1.718,1.895c-0.485,0.523-0.438,1.335,0.084,1.82c0.251,0.214,0.551,0.327,0.86,0.327
			c0.353,0,0.7-0.141,0.951-0.42l1.725-1.903c0.477-0.524,0.432-1.334-0.091-1.812C544.387,380.919,544.05,380.816,543.723,380.835z
			 M576.958,384.187c-0.159,0.027-0.327,0.083-0.476,0.167c-0.608,0.363-0.811,1.148-0.452,1.764l1.319,2.201
			c0.244,0.401,0.662,0.625,1.104,0.625c0.223,0,0.446-0.056,0.651-0.177c0.619-0.365,0.805-1.157,0.447-1.764l-1.313-2.204
			C577.967,384.344,577.465,384.12,576.958,384.187z M548.772,384.354c-0.494-0.056-1.008,0.176-1.268,0.634l-1.288,2.221
			c-0.356,0.607-0.142,1.4,0.467,1.755c0.202,0.111,0.427,0.168,0.641,0.168c0.44,0,0.881-0.226,1.111-0.634l1.29-2.222
			c0.354-0.617,0.147-1.4-0.468-1.755C549.1,384.429,548.94,384.382,548.772,384.354z M571.809,386.668
			c-0.16-0.018-0.339,0-0.509,0.056c-0.668,0.234-1.033,0.962-0.811,1.625l0.822,2.436c0.176,0.532,0.683,0.878,1.214,0.878
			c0.137,0,0.281-0.02,0.408-0.067c0.674-0.224,1.039-0.96,0.811-1.632l-0.818-2.427
			C572.756,387.033,572.311,386.707,571.809,386.668z M553.951,386.78c-0.497,0.038-0.941,0.375-1.101,0.878l-0.794,2.436
			c-0.213,0.681,0.158,1.399,0.832,1.625c0.129,0.037,0.262,0.055,0.393,0.055c0.539,0,1.046-0.336,1.22-0.887l0.785-2.444
			c0.215-0.673-0.148-1.4-0.82-1.615C554.288,386.78,554.123,386.762,553.951,386.78z M565.749,387.958
			c-0.71,0.083-1.212,0.717-1.141,1.426l0.29,2.548c0.067,0.653,0.628,1.138,1.271,1.138c0.045,0,0.092-0.009,0.139-0.009
			c0.711-0.075,1.214-0.709,1.128-1.418l-0.28-2.547C567.084,388.395,566.438,387.891,565.749,387.958z M560.036,387.994
			c-0.717-0.064-1.333,0.438-1.399,1.148l-0.25,2.548c-0.076,0.709,0.438,1.334,1.146,1.399c0.045,0.01,0.084,0.02,0.129,0.02
			c0.646,0,1.208-0.494,1.269-1.167l0.255-2.548C561.262,388.686,560.747,388.06,560.036,387.994z"/>
	</g>
</g>
<linearGradient id="SVGID_7_" gradientUnits="userSpaceOnUse" x1="255.3076" y1="514.4834" x2="330.8221" y2="588.0256">
	<stop  offset="0" style="stop-color:#0FB259"/>
	<stop  offset="1" style="stop-color:#048442"/>
</linearGradient>
<path fill="url(#SVGID_7_)" d="M345.185,550.683c0,29.107-23.602,52.701-52.713,52.701c-29.099,0-52.703-23.594-52.703-52.701
	c0-29.109,23.604-52.703,52.703-52.703C321.583,497.979,345.185,521.573,345.185,550.683z"/>
<linearGradient id="SVGID_8_" gradientUnits="userSpaceOnUse" x1="465.063" y1="611.9326" x2="538.7817" y2="687.2802">
	<stop  offset="0" style="stop-color:#0FB259"/>
	<stop  offset="1" style="stop-color:#048442"/>
</linearGradient>
<path fill="url(#SVGID_8_)" d="M553.447,648.399c0,29.111-23.592,52.701-52.713,52.701c-29.1,0-52.702-23.59-52.702-52.701
	s23.602-52.703,52.702-52.703C529.855,595.696,553.447,619.288,553.447,648.399z"/>
<linearGradient id="SVGID_9_" gradientUnits="userSpaceOnUse" x1="520.376" y1="798.9854" x2="596.2751" y2="872.1375">
	<stop  offset="0" style="stop-color:#0FB259"/>
	<stop  offset="1" style="stop-color:#048442"/>
</linearGradient>
<path fill="url(#SVGID_9_)" d="M611.606,836.107c0,29.117-23.596,52.709-52.715,52.709c-29.1,0-52.702-23.592-52.702-52.709
	c0-29.102,23.603-52.695,52.702-52.695C588.011,783.412,611.606,807.006,611.606,836.107z"/>
<g>
	<path fill="none" d="M259.379,583.851v-66.215h66.206v66.215H259.379z"/>
	<g>
		<g id="surface1_5_">
			<path fill="#FFFFFF" d="M297.411,517.513c-0.253,0-0.525,0.123-0.72,0.328c-2.903,3.107-3.882,6.762-4.191,9.49
				c-0.654-0.113-1.297-0.299-1.913-0.596c-0.784-0.385-1.577-0.664-2.37-0.805c-4.854-0.867-9.427,2.912-9.623,3.072
				c-0.335,0.27-0.458,0.734-0.299,1.137c0,0,0.011,0.057,0.038,0.102c-10.377,3.695-16.882,11.549-16.882,21.551
				c0,9.633,3.022,32.059,31.041,32.059c27.998,0,31.031-22.426,31.031-32.059c0-8.969-5.216-16.182-13.737-20.234
				c0.083-0.072,0.14-0.127,0.149-0.148c0.419-0.381,0.466-1.016,0.084-1.457c-0.169-0.186-4.191-4.729-9.129-4.506
				c-1.269,0.055-2.557,0.42-3.854,1.084c-0.792,0.408-1.614,0.682-2.435,0.801c0.289-2.371,1.175-5.486,3.603-8.084
				c0.39-0.408,0.373-1.074-0.038-1.451C297.951,517.587,297.681,517.493,297.411,517.513z M300.975,527.517
				c2.846-0.119,5.477,1.914,6.739,3.063c-0.02,0.02-0.047,0.035-0.075,0.055c-0.514,0.395-1.214,0.936-2.007,1.477
				c-0.876,0.586-1.866,1.203-2.828,1.631c-0.327,0.162-0.551,0.465-0.588,0.842c-0.036,0.363,0.104,0.719,0.392,0.914
				c0.962,0.773,1.624,1.951,1.961,2.709c-0.701,0.408-1.894,1.004-3.1,1.072l0,0c-0.438,0.025-0.84,0-1.204-0.123
				c-1.811-0.551-2.996-3.041-3.304-3.963c-0.187-0.545-0.773-0.834-1.314-0.648c-0.542,0.178-0.832,0.766-0.655,1.299
				c0.057,0.148,0.989,2.891,3.062,4.463c-0.504,1.641-1.438,3.049-2.043,3.863c-1.195-0.99-3.482-3.166-3.8-5.9
				c-0.065-0.436-0.382-0.783-0.792-0.887c-0.075-0.02-0.169-0.037-0.243-0.037c-0.345,0-0.672,0.176-0.859,0.447
				c-0.961,1.439-2.762,2.129-3.853,2.445c-0.16-0.934-0.299-2.389,0.12-3.695c0.113,0,0.235,0.018,0.347,0.018
				c0.401,0,0.802-0.018,1.194-0.063c0.56-0.066,0.971-0.568,0.905-1.158c-0.065-0.545-0.578-0.973-1.138-0.895
				c-0.607,0.072-1.26,0.072-1.896,0c-0.093,0-0.157,0.018-0.232,0.018c-0.037,0-0.055,0-0.094,0
				c-2.007-0.365-3.416-1.766-4.292-2.977c-0.355-0.525-0.635-0.992-0.831-1.354c0.409-0.279,0.978-0.646,1.671-1.01
				c1.501-0.783,3.583-1.521,5.637-1.158c0.242,0.037,0.495,0.104,0.736,0.18c0.365,0.121,0.72,0.262,1.083,0.43
				c0.848,0.43,1.763,0.682,2.714,0.809c0,1.076,0.095,1.76,0.104,1.861c0.074,0.52,0.513,0.885,1.018,0.885
				c0.056,0,0.112,0,0.149-0.018c0.568-0.076,0.961-0.59,0.886-1.168c0-0.018-0.084-0.607-0.075-1.533
				c1.205-0.119,2.39-0.445,3.51-1.033c0.046-0.025,0.083-0.037,0.121-0.055C299.071,527.835,300.032,527.556,300.975,527.517z
				 M279.295,532.128c0.962,1.502,2.642,3.428,5.207,4.182c-0.681,2.641,0.168,5.355,0.206,5.48c0.158,0.475,0.634,0.779,1.13,0.705
				c0.148-0.018,2.762-0.418,4.796-2.033c1.354,3.564,4.807,5.861,4.975,5.982c0.178,0.102,0.373,0.16,0.569,0.16
				c0.279,0,0.55-0.104,0.755-0.34c0.093-0.082,2.035-2.182,2.997-5.057c0.093,0.018,0.177,0.041,0.26,0.047
				c0.103,0.027,0.197,0.037,0.29,0.057c0.215,0.018,0.448,0.037,0.663,0.037c0.019,0,0.046,0.02,0.065,0.02
				c0.14,0,0.261,0,0.392-0.02c0.009,0,0.027,0,0.027,0c2.519-0.178,4.742-1.83,4.864-1.932c0.354-0.262,0.502-0.727,0.344-1.148
				c-0.018-0.092-0.605-1.83-1.856-3.307c1.083-0.604,2.127-1.332,2.977-1.967c8.362,3.66,13.486,10.389,13.486,18.797
				c0,26.086-18.134,29.986-28.951,29.986c-10.826,0-28.969-3.9-28.969-29.986C263.522,542.647,269.589,535.47,279.295,532.128z
				 M314.051,541.665c-0.131,0.008-0.261,0.066-0.394,0.131c-0.484,0.301-0.634,0.943-0.334,1.438
				c0.41,0.674,0.792,1.383,1.129,2.082c0.186,0.381,0.55,0.598,0.942,0.598c0.149,0,0.289-0.037,0.438-0.096
				c0.524-0.26,0.738-0.873,0.496-1.387c-0.374-0.766-0.785-1.533-1.242-2.289C314.863,541.79,314.452,541.61,314.051,541.665z
				 M317.187,548.552c-0.122-0.037-0.271-0.037-0.401,0c-0.561,0.123-0.914,0.662-0.803,1.213c0.644,3.037,0.504,6.004-0.439,8.84
				c-0.187,0.541,0.113,1.129,0.662,1.307c0.094,0.037,0.207,0.047,0.318,0.047c0.429,0,0.83-0.277,0.979-0.709
				c1.054-3.184,1.223-6.523,0.504-9.9C317.924,548.938,317.588,548.62,317.187,548.552z M268.692,555.87
				c-0.568,0-1.035,0.469-1.035,1.055c0,0.566,0.457,1.018,1.035,1.018l2.063,0.021c0.579,0,1.045-0.473,1.045-1.039
				c0-0.586-0.466-1.037-1.045-1.037L268.692,555.87z M271.465,560.192c-0.14-0.037-0.281-0.018-0.41,0.018l-2,0.523
				c-0.558,0.158-0.884,0.727-0.736,1.27c0.131,0.465,0.534,0.756,0.999,0.756c0.084,0,0.168,0,0.271-0.01l1.997-0.543
				c0.551-0.146,0.877-0.707,0.727-1.268C272.201,560.517,271.866,560.239,271.465,560.192z M272.826,564.177
				c-0.121,0.018-0.26,0.049-0.382,0.117l-1.792,1.043c-0.494,0.277-0.673,0.912-0.383,1.416c0.196,0.328,0.542,0.512,0.896,0.512
				c0.177,0,0.354-0.043,0.522-0.137l1.782-1.027c0.505-0.291,0.673-0.916,0.393-1.418
				C273.648,564.31,273.228,564.12,272.826,564.177z M275.588,567.603c-0.261,0-0.53,0.102-0.736,0.289l-1.456,1.465
				c-0.41,0.4-0.41,1.053-0.009,1.457c0.206,0.215,0.476,0.314,0.728,0.314c0.262,0,0.531-0.1,0.728-0.314l1.473-1.438
				c0.402-0.418,0.402-1.066,0-1.484C276.121,567.704,275.851,567.603,275.588,567.603z M279.136,570.243
				c-0.402-0.059-0.802,0.141-1.016,0.506l-1.046,1.793c-0.29,0.482-0.121,1.137,0.373,1.416c0.168,0.092,0.346,0.131,0.523,0.131
				c0.365,0,0.709-0.176,0.896-0.504l1.036-1.793c0.291-0.502,0.123-1.129-0.372-1.428
				C279.406,570.3,279.267,570.263,279.136,570.243z"/>
		</g>
	</g>
</g>
<g id="surface1">
	<path fill="#FFFFFF" d="M564.632,809.305c-0.478,0-0.859,0.389-0.859,0.855v1.719c0,0.465,0.382,0.857,0.859,0.857
		c0.474,0,0.859-0.393,0.859-0.857v-1.719C565.491,809.693,565.105,809.305,564.632,809.305z M566.39,813.26
		c-0.235,0-0.459,0.096-0.618,0.24l-1.202,1.217c-1.512,1.529-2.159,4.014-2.073,6.402l-1.569-1.572
		c-0.327-0.314-0.867-0.314-1.197,0l-1.211,1.217c-1.484,1.494-2.115,3.955-2.036,6.309l-1.527-1.531
		c-0.157-0.168-0.384-0.262-0.608-0.262c-0.223,0-0.437,0.094-0.597,0.262l-1.212,1.195c-1.524,1.529-2.186,4.088-2.122,6.496
		l-1.575-1.586c-0.336-0.336-0.875-0.336-1.215,0l-1.21,1.213c-1.513,1.512-2.15,4.031-2.057,6.4l-1.576-1.566
		c-0.316-0.318-0.876-0.318-1.205,0l-1.211,1.211c-1.449,1.457-2.252,3.383-2.252,5.453c0,2.053,0.803,3.994,2.252,5.43l1.821,1.83
		l-9.83,9.836c-0.335,0.316-0.335,0.879,0,1.195c0.157,0.166,0.382,0.26,0.599,0.26c0.225,0,0.438-0.094,0.604-0.26l9.838-9.836
		l1.812,1.83c1.445,1.436,3.386,2.24,5.442,2.24c2.06,0,3.993-0.805,5.441-2.24l1.211-1.213c0.159-0.168,0.253-0.375,0.253-0.617
		c0-0.225-0.094-0.428-0.253-0.598l-1.577-1.588c0.152,0,0.301,0.039,0.446,0.039c2.243,0,4.547-0.652,5.977-2.072l1.2-1.213
		c0.329-0.338,0.329-0.879,0-1.213l-1.585-1.59c0.115,0,0.207,0.021,0.317,0.021c2.305,0,4.723-0.674,6.179-2.127l1.211-1.215
		c0.163-0.168,0.245-0.373,0.245-0.598c0-0.227-0.082-0.445-0.245-0.615l-1.548-1.551c0.143,0.021,0.279,0.037,0.423,0.037
		c2.228,0,4.494-0.633,5.898-2.033l1.212-1.215c0.324-0.336,0.324-0.875,0-1.211l-1.585-1.586c0.145,0,0.309,0.035,0.445,0.035
		c2.25,0,4.545-0.654,5.974-2.07l1.212-1.215c0.162-0.17,0.256-0.373,0.256-0.598c0-0.24-0.094-0.467-0.256-0.615l-2.416-2.408
		c-0.647-0.65-1.363-1.139-2.137-1.51c1.912-1.27,3.068-3.342,3.052-5.676v-2.574c0-0.471-0.386-0.861-0.859-0.861h-2.611
		c-2.308,0-4.331,1.211-5.563,3.191c-0.372-0.82-0.896-1.584-1.569-2.258l-2.415-2.428
		C566.825,813.355,566.612,813.26,566.39,813.26z M559.192,814.754c-0.479,0-0.861,0.393-0.861,0.855v1.719
		c0,0.469,0.382,0.842,0.861,0.842c0.476,0,0.848-0.373,0.848-0.842v-1.719C560.04,815.146,559.668,814.754,559.192,814.754z
		 M566.39,815.332l1.798,1.811c2.344,2.336,2.344,6.123,0,8.473c-0.327,0.318-0.327,0.859,0,1.193
		c0.179,0.168,0.392,0.246,0.618,0.246c0.212,0,0.438-0.078,0.596-0.246c2.333-2.332,6.13-2.332,8.465,0l1.819,1.83l-0.597,0.598
		c-1.904,1.887-6.168,1.961-8.447,0.787c-0.028-0.021-0.065-0.021-0.094-0.039c-0.934-0.393-1.93-0.58-2.961-0.58
		c-0.809,0-1.599,0.129-2.351,0.359c0.554-1.719,0.478-3.588-0.202-5.27c-0.021-0.033-0.021-0.092-0.036-0.127
		c-1.196-2.279-1.124-6.555,0.773-8.439L566.39,815.332z M576.578,816.711h1.719v1.719c0.017,2.221-1.382,4.162-3.584,4.912
		c-0.049,0.035-0.086,0.053-0.119,0.068c-1.116-0.127-2.245-0.033-3.315,0.32c0.309-0.971,0.417-1.979,0.346-2.986
		c0.042-0.055,0.083-0.111,0.101-0.186C572.472,818.207,574.34,816.693,576.578,816.711z M553.75,820.186
		c-0.476,0-0.857,0.389-0.857,0.857v1.717c0,0.465,0.382,0.861,0.857,0.861c0.474,0,0.848-0.396,0.848-0.861v-1.717
		C554.598,820.574,554.224,820.186,553.75,820.186z M560.332,821.361l1.819,1.828c2.332,2.316,2.332,6.121,0,8.457
		c-0.348,0.33-0.348,0.875,0,1.213c0.165,0.168,0.373,0.258,0.596,0.258c0.225,0,0.437-0.09,0.604-0.258
		c1.132-1.139,2.637-1.756,4.235-1.756s3.102,0.617,4.239,1.756l1.813,1.809l-0.608,0.615c-1.723,1.719-5.486,1.906-7.837,0.992
		c-1.842-0.973-3.994-1.16-5.936-0.525c0.614-1.955,0.457-4.104-0.517-5.953c-0.923-2.35-0.746-6.104,0.988-7.84L560.332,821.361z
		 M548.303,825.654c-0.479,0-0.852,0.375-0.852,0.838v1.719c0,0.467,0.372,0.838,0.852,0.838c0.474,0,0.854-0.371,0.854-0.838
		v-1.719C549.156,826.029,548.776,825.654,548.303,825.654z M554.347,827.35l1.822,1.814c0.42,0.41,0.757,0.877,1.021,1.381
		c0.088,0.205,0.172,0.43,0.282,0.615c0,0,0.011,0,0.021,0.02c0.859,2.166,0.421,4.721-1.324,6.455c-0.34,0.338-0.34,0.881,0,1.215
		c0.156,0.17,0.379,0.242,0.595,0.242c0.228,0,0.45-0.072,0.615-0.242c1.735-1.754,4.294-2.182,6.45-1.344
		c0.008,0,0.008,0.018,0.008,0.018c0.115,0.059,0.237,0.096,0.36,0.17c0.595,0.279,1.153,0.652,1.64,1.156l1.819,1.811l-0.609,0.598
		c-1.725,1.736-5.525,2.016-7.892,1.156c-1.111-0.596-2.362-0.914-3.672-0.914c-0.8,0-1.595,0.113-2.35,0.355
		c0.637-1.963,0.459-4.125-0.543-5.973c-0.877-2.369-0.576-6.197,1.159-7.934L554.347,827.35z M583.131,829.518
		c-0.476,0-0.848,0.371-0.848,0.859c0,0.463,0.372,0.857,0.848,0.857h1.713c0.472,0,0.852-0.395,0.852-0.857
		c0-0.488-0.38-0.859-0.852-0.859H583.131z M542.25,831.682c-0.464,0-0.855,0.395-0.855,0.859v1.699
		c0,0.482,0.392,0.875,0.855,0.875c0.478,0,0.851-0.393,0.851-0.875v-1.699C543.101,832.076,542.728,831.682,542.25,831.682z
		 M548.236,833.475l1.809,1.809c0.407,0.396,0.738,0.861,0.998,1.324c0.092,0.244,0.197,0.471,0.3,0.674
		c0.019,0.023,0.037,0.039,0.047,0.057c0.827,2.146,0.39,4.688-1.345,6.42c-0.325,0.32-0.325,0.879,0,1.197
		c0.171,0.166,0.394,0.26,0.608,0.26c0.222,0,0.438-0.094,0.604-0.26c1.129-1.121,2.632-1.758,4.227-1.758
		c0.756,0,1.495,0.15,2.175,0.414c0.021,0.016,0.041,0.037,0.058,0.055c0.198,0.092,0.42,0.168,0.637,0.26
		c0.492,0.281,0.96,0.617,1.377,1.029l1.815,1.828l-0.61,0.598c-1.891,1.883-6.159,1.977-8.438,0.766
		c-0.043,0-0.101-0.02-0.137-0.037c-1.635-0.654-3.453-0.729-5.132-0.242c-0.01-0.018-0.023-0.039-0.039-0.039
		c-0.012-0.039-0.037-0.039-0.055-0.039c0.515-1.68,0.42-3.508-0.245-5.15c-0.021-0.037-0.021-0.094-0.035-0.131
		c-1.196-2.275-1.119-6.531,0.771-8.436L548.236,833.475z M577.69,834.947c-0.476,0-0.861,0.395-0.861,0.859
		c0,0.486,0.386,0.861,0.861,0.861h1.705c0.479,0,0.858-0.375,0.858-0.861c0-0.465-0.38-0.859-0.858-0.859H577.69z M542.188,839.502
		l1.809,1.832c2.343,2.332,2.343,6.121,0,8.453l-0.598,0.615l-1.821-1.809c-1.127-1.139-1.744-2.648-1.744-4.236
		c0-1.607,0.617-3.117,1.744-4.236L542.188,839.502z M572.249,840.4c-0.476,0-0.861,0.391-0.861,0.857s0.386,0.859,0.861,0.859
		h1.705c0.478,0,0.852-0.393,0.852-0.859s-0.374-0.857-0.852-0.857H572.249z M566.799,845.848c-0.466,0-0.852,0.396-0.852,0.861
		c0,0.467,0.386,0.84,0.852,0.84h1.704c0.477,0,0.863-0.373,0.863-0.84c0-0.465-0.387-0.861-0.863-0.861H566.799z M549.446,849.264
		c1.531,0,3.064,0.564,4.241,1.736l1.796,1.813l-0.596,0.617c-1.13,1.137-2.643,1.754-4.234,1.754c-1.6,0-3.099-0.617-4.237-1.754
		l-1.812-1.813l0.606-0.617C546.375,849.828,547.908,849.264,549.446,849.264z M560.748,851.9c-0.476,0-0.847,0.389-0.847,0.838
		c0,0.482,0.371,0.879,0.847,0.879h1.72c0.467,0,0.849-0.396,0.849-0.879c0-0.449-0.382-0.838-0.849-0.838H560.748z"/>
</g>
<g>
	<path fill="none" d="M492.861,93.768V11.657h82.09v82.111H492.861z"/>
	<g>
		<path fill="#FFFFFF" d="M533.906,15.521c-20.514,0-37.2,16.668-37.2,37.201c0,20.513,16.687,37.182,37.2,37.182
			c20.515,0,37.203-16.669,37.203-37.182C571.109,32.19,554.421,15.521,533.906,15.521z M533.906,18.078
			c19.096,0,34.636,15.55,34.636,34.645c0,19.093-15.54,34.624-34.636,34.624s-34.635-15.53-34.635-34.624
			C499.271,33.628,514.811,18.078,533.906,18.078z M535.959,21.998c-0.709-0.019-1.314,0.486-1.362,1.195l-0.167,2.556
			c-0.047,0.709,0.486,1.308,1.195,1.363c0.027,0,0.055,0,0.082,0c0.673,0,1.232-0.503,1.279-1.194l0.168-2.557
			C537.202,22.651,536.67,22.054,535.959,21.998z M528.586,22.408c-0.7,0.13-1.166,0.803-1.044,1.494l0.438,2.539
			c0.111,0.616,0.653,1.045,1.26,1.045c0.074,0,0.148,0,0.233-0.018c0.69-0.114,1.158-0.785,1.036-1.476l-0.439-2.538
			C529.951,22.763,529.287,22.297,528.586,22.408z M521.998,24.443c-0.168,0-0.335,0.036-0.495,0.093
			c-0.653,0.299-0.942,1.045-0.653,1.699l1.035,2.353c0.216,0.484,0.682,0.763,1.177,0.763c0.169,0,0.345-0.035,0.514-0.111
			c0.644-0.28,0.942-1.045,0.653-1.699l-1.035-2.334C522.979,24.723,522.502,24.424,521.998,24.443z M516.1,28.082
			c-0.316-0.056-0.663,0.039-0.942,0.244c-0.56,0.429-0.672,1.251-0.233,1.81l1.559,2.035c0.252,0.318,0.635,0.485,1.017,0.485
			c0.279,0,0.55-0.074,0.784-0.261c0.561-0.429,0.672-1.231,0.234-1.792l-1.561-2.034C516.734,28.289,516.426,28.121,516.1,28.082z
			 M539.133,29.67c-6.225-0.094-13.121,1.53-18.246,7.037c-4.964,5.338-7.297,10.993-6.925,16.837
			c0.579,9.145,7.532,15.362,8.382,16.107c-0.02,3.099,0.215,6.067,0.7,8.587c0.121,0.617,0.651,1.045,1.259,1.045
			c0.075,0,0.159,0,0.242-0.019c0.701-0.149,1.148-0.802,1.02-1.512c-1.374-7.167-0.84-18.086,2.816-25.104
			c4.443-8.495,10.854-11.759,10.921-11.779c0.625-0.318,0.896-1.101,0.578-1.717c-0.317-0.635-1.074-0.896-1.717-0.597
			c-0.29,0.148-7.204,3.62-12.05,12.916c-2.156,4.107-3.274,9.445-3.639,14.671c-2.119-2.314-5.582-6.888-5.955-12.766
			c-0.326-5.096,1.773-10.119,6.244-14.933c8.474-9.109,22.464-6.329,28.035-3.865c-2.025,3.397-2.715,7.56-3.451,11.929
			c-0.804,4.815-1.636,9.762-4.379,13.607c-4.881,6.869-14.121,7.372-14.215,7.372c-0.709,0.039-1.25,0.635-1.221,1.345
			c0.037,0.709,0.625,1.233,1.335,1.233c0.428-0.019,10.573-0.561,16.191-8.456c3.08-4.332,3.957-9.576,4.816-14.672
			c0.773-4.629,1.501-8.978,3.815-12.095c0.226-0.298,0.3-0.653,0.234-1.027c-0.074-0.354-0.299-0.653-0.615-0.84
			C550.892,31.573,545.349,29.762,539.133,29.67z M510.732,33.029c-0.326,0.037-0.644,0.187-0.857,0.466
			c-0.448,0.561-0.354,1.363,0.195,1.792l2.007,1.624c0.233,0.187,0.521,0.262,0.793,0.262c0.383,0,0.757-0.149,1.007-0.466
			c0.449-0.56,0.356-1.363-0.195-1.792l-2.006-1.606C511.396,33.066,511.059,32.992,510.732,33.029z M507.195,39.041
			c-0.494-0.02-0.979,0.279-1.204,0.745c-0.298,0.654-0.019,1.42,0.626,1.699l2.324,1.101c0.178,0.075,0.354,0.112,0.541,0.112
			c0.485,0,0.943-0.28,1.167-0.747c0.288-0.652,0.009-1.4-0.626-1.699l-2.334-1.082C507.531,39.096,507.363,39.041,507.195,39.041z
			 M561.832,41.633c-0.18,0-0.348,0.02-0.514,0.075l-2.418,0.859c-0.672,0.223-1.019,0.972-0.793,1.643
			c0.195,0.522,0.682,0.858,1.212,0.858c0.151,0,0.29-0.02,0.431-0.075l2.418-0.858c0.672-0.223,1.026-0.971,0.783-1.623
			C562.783,42.008,562.325,41.671,561.832,41.633z M505.198,45.797c-0.699-0.131-1.361,0.335-1.501,1.026
			c-0.131,0.691,0.326,1.362,1.016,1.494l2.52,0.503c0.084,0,0.168,0.018,0.242,0.018c0.609,0,1.141-0.428,1.262-1.045
			c0.129-0.691-0.318-1.363-1.018-1.493L505.198,45.797z M563.034,47.87l-2.538,0.316c-0.699,0.094-1.213,0.709-1.13,1.419
			c0.084,0.653,0.635,1.139,1.271,1.139c0.057,0,0.111,0,0.158-0.02l2.547-0.299c0.701-0.094,1.205-0.728,1.122-1.438
			C564.379,48.297,563.735,47.794,563.034,47.87z M560.832,54.009c-0.71-0.092-1.326,0.449-1.399,1.158
			c-0.066,0.71,0.456,1.325,1.157,1.4l2.559,0.242c0.046,0,0.082,0,0.119,0c0.656,0,1.213-0.484,1.279-1.158
			c0.065-0.708-0.459-1.325-1.156-1.399L560.832,54.009z M559.413,59.722c-0.495,0.056-0.943,0.374-1.101,0.876
			c-0.215,0.672,0.15,1.4,0.831,1.624l2.435,0.784c0.131,0.038,0.262,0.056,0.394,0.056c0.55,0,1.042-0.336,1.223-0.876
			c0.213-0.692-0.16-1.401-0.821-1.624l-2.445-0.785C559.759,59.722,559.581,59.702,559.413,59.722z M557.295,65.041
			c-0.496-0.074-0.998,0.149-1.27,0.616c-0.364,0.617-0.158,1.401,0.459,1.756l2.211,1.287c0.205,0.131,0.43,0.187,0.652,0.187
			c0.439,0,0.869-0.224,1.102-0.635c0.365-0.616,0.159-1.4-0.448-1.755l-2.22-1.306C557.631,65.116,557.473,65.06,557.295,65.041z
			 M553.609,69.689c-0.326,0.037-0.654,0.168-0.896,0.41c-0.477,0.542-0.448,1.344,0.074,1.83l1.885,1.737
			c0.244,0.242,0.562,0.335,0.869,0.335c0.345,0,0.689-0.131,0.943-0.411c0.475-0.504,0.447-1.325-0.066-1.811l-1.895-1.735
			C554.271,69.8,553.936,69.689,553.609,69.689z M549.492,73.553c-0.316-0.056-0.662,0.019-0.961,0.205
			c-0.578,0.411-0.718,1.214-0.309,1.792l1.467,2.109c0.242,0.355,0.644,0.562,1.053,0.562c0.254,0,0.506-0.094,0.729-0.244
			c0.589-0.412,0.719-1.214,0.318-1.792l-1.467-2.091C550.117,73.795,549.82,73.608,549.492,73.553z M544.164,76.335
			c-0.158,0-0.326,0.018-0.495,0.092c-0.652,0.262-0.971,1.026-0.7,1.679l0.98,2.372c0.206,0.502,0.681,0.784,1.186,0.784
			c0.166,0,0.326-0.02,0.484-0.094c0.662-0.261,0.971-1.008,0.701-1.661l-0.972-2.37C545.145,76.651,544.668,76.335,544.164,76.335z
			 M538.34,77.958c-0.7,0.112-1.167,0.784-1.043,1.493l0.437,2.52c0.112,0.616,0.653,1.063,1.259,1.063
			c0.076,0,0.15-0.018,0.225-0.018c0.7-0.131,1.168-0.784,1.045-1.475l-0.438-2.558C539.702,78.313,539.03,77.846,538.34,77.958z"/>
	</g>
</g>
<g>
	<path fill="none" d="M469.563,679.562v-62.336h62.342v62.336H469.563z"/>
	<g>
		<g id="surface1_4_">
			<path fill="#FFFFFF" d="M525.292,619.177c-1.029,0.045-1.982,0.512-2.644,1.297l-4.079,4.814l0.01-1.061
				c0-0.795-0.3-1.541-0.85-2.094c-1.166-1.182-3.247-1.088-4.322,0.168c-0.55,0.654-0.792,1.523-0.652,2.383
				c0.422,2.502,0.048,5.021-1.091,7.318l-0.468,0.912c-2.547-2.053-5.45-3.656-8.613-4.723c-2.698-0.902-5.703-0.01-7.485,2.221
				l-4.629,5.787c-6.282,7.85-11.134,16.623-14.458,26.096l-3.359,9.611c-0.374,1.084-0.103,2.238,0.7,3.025
				c0.551,0.557,1.297,0.859,2.052,0.859c0.328,0,0.654-0.039,0.972-0.15l9.614-3.398c9.472-3.285,18.255-8.156,26.084-14.426
				l5.806-4.639c2.221-1.775,3.108-4.779,2.203-7.486c-0.988-2.998-2.51-5.77-4.415-8.203l1.746-0.877
				c2.985-1.484,6.309-1.971,9.594-1.42c1.017,0.17,2.043-0.121,2.828-0.771c0.794-0.678,1.23-1.645,1.23-2.684
				c0-0.932-0.365-1.811-1.025-2.469c-0.663-0.664-1.567-1.002-2.484-1.01L526,628.267c-0.496,0-0.99,0.037-1.477,0.084l3.249-2.715
				c0.792-0.652,1.26-1.625,1.314-2.643c0.047-1.014-0.343-2.023-1.063-2.744C527.296,619.522,526.298,619.151,525.292,619.177z
				 M525.364,621.128c0.493-0.02,0.934,0.148,1.278,0.484c0.346,0.344,0.522,0.813,0.503,1.287
				c-0.027,0.486-0.243,0.926-0.614,1.244c0,0-6.038,5.049-6.067,5.057c-0.996,0.354-1.969,0.775-2.892,1.279
				c0.231-0.578,0.411-1.166,0.558-1.775c0.123-0.066,6.01-6.979,6.01-6.979C524.45,621.37,524.877,621.147,525.364,621.128z
				 M515.649,623.218c0.259,0,0.513,0.102,0.689,0.289c0.188,0.188,0.29,0.43,0.29,0.691l-0.008,1.213
				c-0.028,3.174-1.282,6.15-3.521,8.391l-0.326,0.314l0.644-1.258c1.306-2.648,1.744-5.59,1.26-8.502
				c-0.056-0.289,0.037-0.576,0.214-0.793C515.08,623.339,515.351,623.218,515.649,623.218z M500.436,629.788
				c0.514,0,1.035,0.092,1.529,0.262c7.645,2.539,13.731,8.613,16.279,16.27c0.633,1.92,0.009,4.066-1.588,5.336l-5.796,4.648
				c-7.661,6.123-16.257,10.863-25.525,14.146l-9.604,3.322c-0.363,0.152-0.737,0.078-1.009-0.223
				c-0.27-0.262-0.354-0.633-0.223-1.004l3.359-9.598c3.238-9.266,7.988-17.861,14.13-25.527l4.638-5.803
				C497.571,630.44,498.98,629.788,500.436,629.788z M527.566,630.21h0.018c0.411,0,0.795,0.145,1.082,0.439
				c0.29,0.289,0.46,0.68,0.46,1.109c0,0.438-0.206,0.877-0.552,1.156c-0.337,0.309-0.794,0.428-1.249,0.354
				c-3.688-0.613-7.421-0.053-10.782,1.598l-2.154,1.084c-0.075-0.094-0.16-0.18-0.232-0.262l0.858-0.869
				c2.939-2.932,6.84-4.566,11.002-4.609H527.566z M499.223,631.917c-0.252,0.025-0.486,0.15-0.653,0.355l-1.876,2.342
				c-0.336,0.42-0.262,1.035,0.149,1.371c0.186,0.143,0.391,0.215,0.607,0.215c0.289,0,0.569-0.129,0.764-0.361l1.876-2.354
				c0.336-0.422,0.271-1.035-0.149-1.363C499.717,631.942,499.475,631.888,499.223,631.917z M494.818,637.421
				c-0.253,0.02-0.485,0.141-0.644,0.357l-0.953,1.176c-1.949,2.438-3.78,4.982-5.459,7.604c-0.289,0.461-0.149,1.057,0.299,1.346
				c0.167,0.111,0.345,0.158,0.522,0.158c0.317,0,0.644-0.158,0.823-0.457c1.642-2.547,3.444-5.057,5.338-7.434l0.943-1.18
				c0.343-0.42,0.27-1.039-0.151-1.363C495.331,637.452,495.069,637.384,494.818,637.421z M506.27,638.851
				c-0.242,0-0.495,0.096-0.682,0.283c-0.393,0.389-0.393,0.994,0,1.379l1.371,1.381c0.186,0.178,0.447,0.271,0.693,0.271
				c0.25,0,0.493-0.094,0.689-0.271c0.382-0.381,0.382-1,0-1.381l-1.383-1.379C506.772,638.946,506.521,638.851,506.27,638.851z
				 M496.459,643.786c-0.25,0-0.503,0.104-0.689,0.289c-0.374,0.375-0.374,0.992,0,1.373l1.382,1.383
				c0.195,0.188,0.438,0.281,0.681,0.281c0.26,0,0.503-0.094,0.7-0.281c0.372-0.383,0.372-0.99,0-1.383l-1.381-1.373
				C496.955,643.89,496.712,643.786,496.459,643.786z M508.732,649.595c-0.242,0-0.484,0.092-0.682,0.268
				c-0.381,0.389-0.381,1,0,1.383l1.382,1.381c0.186,0.189,0.439,0.281,0.692,0.281c0.242,0,0.493-0.092,0.689-0.281
				c0.373-0.381,0.373-0.998,0-1.381l-1.382-1.383C509.236,649.687,508.994,649.595,508.732,649.595z M490.553,654.009
				c-0.253,0-0.504,0.09-0.701,0.279c-0.374,0.373-0.374,0.998,0,1.375l1.382,1.391c0.196,0.186,0.439,0.287,0.691,0.287
				c0.251,0,0.503-0.102,0.691-0.287c0.382-0.387,0.382-1.014,0-1.375l-1.382-1.391
				C491.047,654.099,490.794,654.009,490.553,654.009z M499.103,655.099c-0.253,0-0.506,0.094-0.692,0.289
				c-0.382,0.385-0.382,1.002,0,1.363l1.373,1.385c0.195,0.201,0.438,0.279,0.699,0.279c0.243,0,0.494-0.078,0.682-0.279
				c0.383-0.385,0.383-0.992,0-1.385l-1.381-1.363C499.597,655.192,499.345,655.099,499.103,655.099z M488.079,661.978
				c-0.251,0-0.503,0.092-0.69,0.281c-0.384,0.393-0.384,1.008,0,1.4l1.38,1.369c0.188,0.188,0.439,0.262,0.682,0.262
				c0.252,0,0.504-0.074,0.691-0.262c0.382-0.381,0.382-0.996,0-1.369l-1.373-1.4C488.583,662.069,488.322,661.978,488.079,661.978z
				 M481.192,664.741c-0.243,0-0.505,0.111-0.691,0.287c-0.374,0.373-0.374,0.971,0,1.393l1.372,1.342
				c0.195,0.229,0.438,0.301,0.7,0.301c0.251,0,0.495-0.072,0.681-0.301c0.383-0.371,0.383-0.969,0-1.342l-1.381-1.393
				C481.687,664.853,481.434,664.741,481.192,664.741z"/>
		</g>
	</g>
</g>
<g>
	<path fill="none" d="M844.509,293.544v-66.226h66.229v66.226H844.509z"/>
	<g>
		<path fill="#FFFFFF" d="M852.795,233.534c-1.153,0-2.068,0.915-2.068,2.072v49.65c0,1.138,0.915,2.071,2.068,2.071h49.653
			c1.158,0,2.072-0.933,2.072-2.071v-49.65c0-1.158-0.914-2.072-2.072-2.072H852.795z M852.795,235.606h49.653v49.65h-49.653
			V235.606z M858.994,241.803c-1.117,0-2.053,0.934-2.053,2.072v8.269c0,1.158,0.936,2.072,2.053,2.072h8.289
			c1.139,0,2.052-0.914,2.052-2.072v-3.004c0-0.579-0.443-1.045-1.003-1.045c-0.603,0-1.049,0.466-1.049,1.045v3.004h-8.289v-8.269
			h6.216c0.576,0,1.027-0.466,1.027-1.026c0-0.579-0.451-1.046-1.027-1.046H858.994z M869.86,242.326
			c-0.264,0-0.525,0.093-0.729,0.3l-5.989,5.991l-1.35-1.345c-0.41-0.392-1.044-0.392-1.453,0c-0.411,0.411-0.411,1.064,0,1.476
			l2.069,2.072c0.209,0.204,0.466,0.297,0.733,0.297c0.257,0,0.519-0.093,0.725-0.297l6.74-6.72c0.394-0.411,0.394-1.064,0-1.474
			C870.379,242.418,870.121,242.326,869.86,242.326z M874.526,243.875c-0.581,0-1.049,0.468-1.049,1.028
			c0,0.578,0.468,1.043,1.049,1.043h22.753c0.576,0,1.025-0.466,1.025-1.043c0-0.56-0.449-1.028-1.025-1.028H874.526z
			 M874.526,248.019c-0.581,0-1.049,0.467-1.049,1.028c0,0.559,0.468,1.043,1.049,1.043h16.538c0.575,0,1.045-0.484,1.045-1.043
			c0-0.561-0.47-1.028-1.045-1.028H874.526z M858.994,260.432c-1.117,0-2.053,0.914-2.053,2.071v8.27
			c0,1.139,0.936,2.073,2.053,2.073h8.289c1.139,0,2.052-0.934,2.052-2.073v-3.024c0-0.56-0.443-1.026-1.003-1.026
			c-0.603,0-1.049,0.466-1.049,1.026v3.024h-8.289v-8.27h6.216c0.576,0,1.027-0.465,1.027-1.044c0-0.561-0.451-1.026-1.027-1.026
			H858.994z M869.86,260.936c-0.264,0-0.525,0.113-0.729,0.317l-5.989,5.993l-1.35-1.343c-0.41-0.412-1.044-0.412-1.453,0
			c-0.411,0.41-0.411,1.063,0,1.473l2.069,2.054c0.209,0.204,0.466,0.318,0.733,0.318c0.257,0,0.519-0.114,0.725-0.318l6.74-6.719
			c0.394-0.411,0.394-1.064,0-1.457C870.379,261.048,870.121,260.936,869.86,260.936z M874.526,262.503
			c-0.581,0-1.049,0.449-1.049,1.027s0.468,1.027,1.049,1.027h10.338c0.558,0,1.048-0.448,1.048-1.027s-0.49-1.027-1.048-1.027
			H874.526z M889.008,262.503c-0.578,0-1.039,0.449-1.039,1.027s0.461,1.027,1.039,1.027h8.271c0.576,0,1.025-0.448,1.025-1.027
			s-0.449-1.027-1.025-1.027H889.008z M874.526,266.63c-0.581,0-1.049,0.465-1.049,1.043c0,0.562,0.468,1.027,1.049,1.027h8.27
			c0.575,0,1.025-0.465,1.025-1.027c0-0.579-0.45-1.043-1.025-1.043H874.526z M856.941,279.042c-0.575,0-1.043,0.468-1.043,1.045
			v2.073c0,0.559,0.468,1.027,1.043,1.027c0.561,0,1.025-0.468,1.025-1.027v-2.073C857.967,279.509,857.502,279.042,856.941,279.042
			z M862.093,279.042c-0.558,0-1.025,0.468-1.025,1.045v2.073c0,0.559,0.468,1.027,1.025,1.027c0.581,0,1.049-0.468,1.049-1.027
			v-2.073C863.142,279.509,862.674,279.042,862.093,279.042z M867.283,279.042c-0.58,0-1.046,0.468-1.046,1.045v2.073
			c0,0.559,0.466,1.027,1.046,1.027c0.56,0,1.049-0.468,1.049-1.027v-2.073C868.332,279.509,867.843,279.042,867.283,279.042z
			 M872.453,279.042c-0.582,0-1.024,0.468-1.024,1.045v2.073c0,0.559,0.442,1.027,1.024,1.027c0.58,0,1.024-0.468,1.024-1.027
			v-2.073C873.478,279.509,873.033,279.042,872.453,279.042z M877.621,279.042c-0.56,0-1.043,0.468-1.043,1.045v2.073
			c0,0.559,0.483,1.027,1.043,1.027s1.048-0.468,1.048-1.027v-2.073C878.669,279.509,878.181,279.042,877.621,279.042z
			 M882.796,279.042c-0.578,0-1.027,0.468-1.027,1.045v2.073c0,0.559,0.449,1.027,1.027,1.027c0.575,0,1.025-0.468,1.025-1.027
			v-2.073C883.821,279.509,883.371,279.042,882.796,279.042z M887.969,279.042c-0.564,0-1.05,0.468-1.05,1.045v2.073
			c0,0.559,0.485,1.027,1.05,1.027c0.575,0,1.039-0.468,1.039-1.027v-2.073C889.008,279.509,888.544,279.042,887.969,279.042z
			 M893.153,279.042c-0.576,0-1.044,0.468-1.044,1.045v2.073c0,0.559,0.468,1.027,1.044,1.027c0.56,0,1.031-0.468,1.031-1.027
			v-2.073C894.185,279.509,893.713,279.042,893.153,279.042z M898.305,279.042c-0.56,0-1.025,0.468-1.025,1.045v2.073
			c0,0.559,0.466,1.027,1.025,1.027c0.579,0,1.047-0.468,1.047-1.027v-2.073C899.352,279.509,898.884,279.042,898.305,279.042z"/>
	</g>
</g>
<g>
	<path fill="none" d="M231.251,855.762V721.047h134.693v134.715H231.251z"/>
	<g>
		<g id="surface1_6_">
			<path fill="#FFFFFF" d="M292.29,733.684c-3.482,0-6.319,2.838-6.319,6.311v2.109h-21.765c-2.819,0-5.45,1.102-7.447,3.08
				l-5.329,5.338h-7.522c-3.5,0-6.347,2.838-6.347,6.307c0,3.475,2.847,6.313,6.347,6.313h0.027v8.416h-6.375
				c-3.471,0-6.31,2.838-6.31,6.328v1.604c0,2.41,1.334,4.576,3.482,5.656l9.193,4.594v42.857c0,5.768,4.703,10.471,10.47,10.471
				h88.402c5.767,0,10.462-4.703,10.462-10.471v-42.877l9.201-4.574c2.148-1.08,3.482-3.246,3.482-5.656v-1.604
				c0-3.49-2.838-6.328-6.309-6.328h-6.375v-8.416h0.037c3.49,0,6.337-2.838,6.337-6.313c0-3.469-2.847-6.307-6.346-6.307h-8.241
				l-5.338-5.338c-1.989-1.979-4.629-3.08-7.44-3.08h-21.046v-2.109c0-3.473-2.835-6.311-6.317-6.311H292.29z M292.29,737.885
				h12.617c1.167,0,2.109,0.949,2.109,2.109v2.109h-16.835v-2.109C290.181,738.834,291.124,737.885,292.29,737.885z
				 M264.206,746.301h68.065c1.689,0,3.277,0.672,4.472,1.85l2.352,2.371h-81.719l2.361-2.371
				C260.913,746.973,262.537,746.301,264.206,746.301z M243.908,754.721h109.39c1.167,0,2.128,0.953,2.128,2.107
				c0,1.16-0.962,2.109-2.137,2.109H243.908c-1.176,0-2.138-0.949-2.138-2.109C241.77,755.674,242.732,754.721,243.908,754.721z
				 M248.042,763.141h101.121v69.455c0,3.527-2.855,6.385-6.364,6.385h-88.402c-3.508,0-6.354-2.857-6.354-6.385V763.141z
				 M237.561,775.775h6.318v9.221l-7.251-3.623c-0.719-0.352-1.167-1.08-1.167-1.885v-1.604
				C235.461,776.707,236.404,775.775,237.561,775.775z M353.318,775.775h6.317c1.157,0,2.1,0.932,2.1,2.109v1.604
				c0,0.805-0.449,1.533-1.157,1.885l-7.261,3.623V775.775z M256.507,775.85c-1.157,0-2.11,0.936-2.11,2.109v4.219
				c0,1.158,0.953,2.109,2.11,2.109c1.158,0,2.101-0.951,2.101-2.109v-4.219C258.607,776.785,257.665,775.85,256.507,775.85z
				 M267.035,775.85c-1.166,0-2.109,0.936-2.109,2.109v4.219c0,1.158,0.943,2.109,2.109,2.109c1.149,0,2.099-0.951,2.099-2.109
				v-4.219C269.133,776.785,268.184,775.85,267.035,775.85z M277.553,775.85c-1.158,0-2.101,0.936-2.101,2.109v4.219
				c0,1.158,0.943,2.109,2.101,2.109c1.156,0,2.109-0.951,2.109-2.109v-4.219C279.663,776.785,278.709,775.85,277.553,775.85z
				 M288.08,775.85c-1.167,0-2.109,0.936-2.109,2.109v4.219c0,1.158,0.942,2.109,2.109,2.109c1.158,0,2.101-0.951,2.101-2.109
				v-4.219C290.181,776.785,289.238,775.85,288.08,775.85z M298.598,775.85c-1.157,0-2.1,0.936-2.1,2.109v4.219
				c0,1.158,0.943,2.109,2.1,2.109c1.157,0,2.101-0.951,2.101-2.109v-4.219C300.699,776.785,299.755,775.85,298.598,775.85z
				 M309.117,775.85c-1.158,0-2.101,0.936-2.101,2.109v4.219c0,1.158,0.943,2.109,2.101,2.109c1.167,0,2.108-0.951,2.108-2.109
				v-4.219C311.225,776.785,310.283,775.85,309.117,775.85z M319.645,775.85c-1.159,0-2.11,0.936-2.11,2.109v4.219
				c0,1.158,0.952,2.109,2.11,2.109c1.158,0,2.1-0.951,2.1-2.109v-4.219C321.745,776.785,320.802,775.85,319.645,775.85z
				 M330.162,775.85c-1.147,0-2.099,0.936-2.099,2.109v4.219c0,1.158,0.952,2.109,2.099,2.109c1.167,0,2.109-0.951,2.109-2.109
				v-4.219C332.271,776.785,331.328,775.85,330.162,775.85z M340.69,775.85c-1.158,0-2.1,0.936-2.1,2.109v4.219
				c0,1.158,0.942,2.109,2.1,2.109c1.157,0,2.109-0.951,2.109-2.109v-4.219C342.799,776.785,341.847,775.85,340.69,775.85z
				 M254.397,830.506c-1.155,0-2.099,0.932-2.099,2.09c0,1.174,0.943,2.105,2.099,2.105h71.557c1.166,0,2.109-0.932,2.109-2.105
				c0-1.158-0.943-2.09-2.109-2.09H254.397z M334.38,830.506c-1.158,0-2.109,0.932-2.109,2.09c0,1.174,0.952,2.105,2.109,2.105
				h8.419c1.157,0,2.099-0.932,2.099-2.105c0-1.158-0.942-2.09-2.099-2.09H334.38z"/>
		</g>
	</g>
</g>
<linearGradient id="SVGID_10_" gradientUnits="userSpaceOnUse" x1="40.5254" y1="630.375" x2="126.1566" y2="691.8587">
	<stop  offset="0" style="stop-color:#0FB259"/>
	<stop  offset="1" style="stop-color:#048442"/>
</linearGradient>
<path fill="url(#SVGID_10_)" d="M136.049,661.117c0,29.107-23.602,52.701-52.713,52.701c-29.099,0-52.703-23.594-52.703-52.701
	c0-29.109,23.604-52.703,52.703-52.703C112.447,608.414,136.049,632.008,136.049,661.117z"/>
<g id="surface47101">
	<path fill="#FFFFFF" d="M99.25,628.121c-0.77,0.027-1.48,0.492-1.797,1.238l-2.063,4.832c-0.109,0.262-0.328,0.469-0.598,0.57
		c-0.133,0.055-0.395,0.121-0.668-0.008c-1.914-0.895-4.016-0.828-6.25,0.199c-4.113,1.898-5.996,6.828-6.02,9.719
		c0,0.207,0.078,0.395,0.191,0.563l-0.352,0.563c-4.805,7.66-11.66,13.836-19.824,17.863l-0.242,0.121
		c-6.715,3.313-9.605,11.227-6.563,18.051c1.625,3.645,4.766,6.43,8.609,7.633c1.391,0.438,2.824,0.648,4.25,0.648
		c2.563,0,5.102-0.691,7.332-2.043l0.91-0.547c11.449-6.926,20.395-17.559,25.195-29.941l1.754-4.523
		c0.004-0.012,0.004-0.02,0.008-0.031c0.129,0.055,0.266,0.09,0.406,0.09c0.078,0,0.156-0.008,0.238-0.031
		c0.945-0.23,2.441-4.059,2.457-4.102c0.895-2.574,0.781-5.344-0.309-7.602c-0.055-0.109-0.113-0.219-0.172-0.332
		c-0.637-1.18-1.566-2.184-2.762-2.984l-0.152-0.102c-0.781-0.52-1.336-0.926-1.324-1.418c0.004-0.059,0.016-0.129,0.031-0.207
		l1.281-5.152c0.254-1.016-0.297-2.043-1.277-2.398l-1.52-0.551C99.769,628.148,99.507,628.109,99.25,628.121z M99.343,630.121
		l1.535,0.586l-1.281,5.148c-0.055,0.215-0.086,0.43-0.09,0.641c-0.039,1.637,1.316,2.539,2.215,3.133l0.145,0.098
		c0.938,0.629,1.629,1.375,2.117,2.273c0.043,0.086,0.09,0.172,0.129,0.258c0.863,1.781,0.945,3.992,0.227,6.059
		c-0.082,0.207-0.609,1.301-1.047,2.16c-1.086-1.137-1.953-2.25-2.641-3.395c-0.355-0.59-0.98-0.953-1.676-0.969
		c-0.711,0.008-1.363,0.324-1.754,0.914c-1.402,2.109-3.527,3.277-4.703,3.793c-0.426-1.258-1.063-3.727-0.68-6.375
		c0.105-0.715-0.168-1.41-0.727-1.859c-0.359-0.293-0.797-0.445-1.246-0.445c-0.227,0-0.461,0.043-0.688,0.125
		c-1.648,0.605-3.52,1.066-5.207,1.293c0.414-2.195,1.887-5.477,4.738-6.789c1.676-0.77,3.211-0.84,4.563-0.207
		c0.699,0.328,1.492,0.352,2.234,0.066c0.77-0.293,1.398-0.898,1.723-1.652L99.343,630.121z M89.863,644.16
		c-0.641,4.395,1.105,8.219,1.176,8.375c0.211,0.453,0.723,0.684,1.191,0.539c0.176-0.051,4.234-1.289,6.711-4.961
		c0.688,1.141,1.535,2.25,2.566,3.367c-0.082,0.289-0.152,0.578-0.258,0.852l-1.75,4.527c-4.641,11.973-13.293,22.254-24.367,28.949
		l-0.906,0.551c-2.988,1.809-6.613,2.242-9.953,1.195c-3.297-1.031-5.984-3.418-7.395-6.582c-2.59-5.801-0.109-12.563,5.637-15.398
		l0.242-0.121c8.496-4.188,15.629-10.621,20.629-18.594l0.836-1.328C86.058,645.289,88.082,644.801,89.863,644.16z M85.593,649.41
		c-0.387-0.063-0.785,0.109-1.004,0.461c-0.449,0.723-0.918,1.441-1.398,2.137c-0.313,0.453-0.203,1.074,0.25,1.387
		c0.176,0.121,0.375,0.18,0.57,0.18c0.316,0,0.629-0.148,0.824-0.43c0.5-0.723,0.988-1.469,1.453-2.219
		c0.293-0.473,0.148-1.09-0.324-1.379C85.847,649.473,85.722,649.43,85.593,649.41z M81.464,654.824
		c-0.254,0.023-0.5,0.145-0.676,0.359c-4.391,5.348-9.758,9.625-15.949,12.723c-0.492,0.246-0.691,0.852-0.445,1.344
		c0.176,0.352,0.527,0.555,0.895,0.555c0.152,0,0.305-0.035,0.445-0.105c6.445-3.223,12.031-7.68,16.602-13.246
		c0.352-0.426,0.293-1.059-0.137-1.406C81.988,654.867,81.722,654.797,81.464,654.824z M62.867,680.371
		c-0.258-0.004-0.512,0.09-0.711,0.281l-1.441,1.395c-0.395,0.383-0.402,1.02-0.02,1.414c0.195,0.203,0.457,0.305,0.719,0.305
		c0.25,0,0.5-0.094,0.695-0.281l1.438-1.391c0.398-0.387,0.406-1.02,0.023-1.414c-0.191-0.199-0.445-0.301-0.703-0.305V680.371z
		 M70.183,682.148c-0.129-0.012-0.262,0.004-0.391,0.051c-0.523,0.176-0.801,0.746-0.625,1.27l0.652,1.895
		c0.141,0.414,0.527,0.672,0.945,0.672c0.105,0,0.215-0.016,0.324-0.051c0.52-0.18,0.801-0.75,0.621-1.27l-0.648-1.895
		c-0.137-0.395-0.488-0.645-0.875-0.672H70.183z M66.07,682.324c-0.383,0.063-0.711,0.352-0.809,0.754l-0.473,1.941
		c-0.133,0.535,0.195,1.078,0.73,1.207c0.078,0.02,0.16,0.027,0.238,0.027c0.449,0,0.859-0.305,0.969-0.762l0.477-1.941
		c0.133-0.535-0.199-1.074-0.734-1.207C66.335,682.313,66.199,682.305,66.07,682.324z"/>
</g>
</svg>
